<?xml version="1.0"?><svg width="366.19431" height="192.80281" xmlns="http://www.w3.org/2000/svg" xmlns:xlink="http://www.w3.org/1999/xlink">
 <defs>
  <linearGradient id="linearGradient6414">
   <stop stop-color="#ffffff" offset="0" id="stop6416"/>
   <stop stop-color="#89b9ff" stop-opacity="0" offset="1" id="stop6418"/>
  </linearGradient>
  <radialGradient r="181.09038" fy="328.42188" fx="325.26562" cy="328.42188" cx="325.26562" gradientTransform="matrix(1,0,0,0.5214751,0,157.15804)" gradientUnits="userSpaceOnUse" id="radialGradient2736" xlink:href="#linearGradient6414"/>
  <linearGradient gradientTransform="translate(195.94286,16.830344)" y2="490.77036" x2="372.45071" y1="425.21579" x1="393.01285" gradientUnits="userSpaceOnUse" id="linearGradient6125" xlink:href="#linearGradient5168"/>
  <linearGradient gradientTransform="translate(195.94286,16.830344)" y2="371.05057" x2="361.7919" y1="350.3981" x1="361.67862" gradientUnits="userSpaceOnUse" id="linearGradient6129" xlink:href="#linearGradient5168"/>
  <linearGradient id="linearGradient5168">
   <stop stop-color="#818181" id="stop5170" offset="0"/>
   <stop stop-color="#e4e4e4" id="stop5172" offset="1"/>
  </linearGradient>
  <linearGradient gradientTransform="translate(195.94286,16.830344)" y2="466.27859" x2="319.18427" y1="428.16779" x1="367.90091" gradientUnits="userSpaceOnUse" id="linearGradient6132" xlink:href="#linearGradient5168"/>
  <linearGradient id="linearGradient4477">
   <stop stop-color="#99df59" id="stop4479" offset="0"/>
   <stop stop-color="#1c830a" id="stop4481" offset="1"/>
  </linearGradient>
  <linearGradient id="linearGradient3366">
   <stop stop-color="#c3b08a" offset="0" id="stop3368"/>
   <stop stop-color="#6a5c43" offset="1" id="stop3370"/>
  </linearGradient>
  <linearGradient id="linearGradient3186">
   <stop stop-color="#c3b08a" id="stop3188" offset="0"/>
   <stop stop-color="#e7dfd1" id="stop3190" offset="1"/>
  </linearGradient>
  <linearGradient id="linearGradient3262">
   <stop stop-color="#b8d9e6" id="stop3264" offset="0"/>
   <stop stop-color="#2669a9" id="stop3266" offset="1"/>
  </linearGradient>
  <linearGradient id="linearGradient5997">
   <stop stop-color="#706985" id="stop5999" offset="0"/>
   <stop stop-color="#c8bfef" id="stop6001" offset="1"/>
  </linearGradient>
  <linearGradient id="linearGradient6013">
   <stop stop-color="#260c72" offset="0" id="stop6015"/>
   <stop stop-color="#c8bfef" offset="1" id="stop6017"/>
  </linearGradient>
  <linearGradient id="linearGradient3236">
   <stop stop-color="#cccccc" id="stop3238" offset="0"/>
   <stop stop-color="#f6f6f6" id="stop3240" offset="1"/>
  </linearGradient>
  <linearGradient id="linearGradient4534">
   <stop stop-color="#c7e0ec" id="stop4536" offset="0"/>
   <stop stop-color="#3b6bb1" id="stop4538" offset="1"/>
  </linearGradient>
  <linearGradient id="linearGradient4528">
   <stop stop-color="#c5d9e3" offset="0" id="stop4530"/>
   <stop stop-color="#3b6bb1" offset="1" id="stop4532"/>
  </linearGradient>
  <linearGradient id="linearGradient4542">
   <stop stop-color="#4879c2" id="stop4544" offset="0"/>
   <stop stop-color="#f5f8fc" id="stop4546" offset="1"/>
  </linearGradient>
 </defs>
 <metadata id="metadata3228">image/svg+xml</metadata>
 <g>
  <title>Layer 1</title>
  <g externalResourcesRequired="false" id="layer1">
   <g externalResourcesRequired="false" id="g6444">
    <path fill="url(#radialGradient2736)" fill-rule="nonzero" stroke="#000000" stroke-width="2.587" stroke-miterlimit="4" stroke-dashoffset="0" d="m195.188187,3.097824c-37.514313,0 -69.202972,23.923523 -79.0625,56.59375c-4.104477,-2.320892 -8.826416,-3.65625 -13.875,-3.65625c-15.612915,0 -28.28125,12.668335 -28.28125,28.28125c0,0.159027 -0.002625,0.310364 0,0.46875c-4.67691,-0.958191 -9.580566,-1.5 -14.65625,-1.5c-30.947037,0 -56.062485,19.018127 -56.0625,42.4375c0,23.419373 25.115463,42.4375 56.0625,42.4375c12.257294,0 23.582855,-3.00592 32.8125,-8.0625c5.512253,16.492157 21.067627,28.40625 39.40625,28.40625c12.426636,0 23.569366,-5.471313 31.1875,-14.125c7.390594,3.865997 16.081696,6.09375 25.375,6.09375c12.64444,0 24.183716,-4.113098 32.84375,-10.875c11.669556,12.111359 28.828827,19.78125 47.968735,19.78125c23.480591,0 44.002136,-11.553284 55.031281,-28.6875c1.660339,0.243317 3.36377,0.375 5.093719,0.375c18.679749,0 33.812531,-14.690369 33.812531,-32.8125c0,-18.122131 -15.132782,-32.84375 -33.812531,-32.84375c-3.342529,0 -6.574524,0.497833 -9.625,1.375c-10.065552,-11.865021 -25.114868,-20.09082 -42.312469,-22.09375c-3.517853,-40.081909 -38.849075,-71.593765 -81.906265,-71.59375z" id="path5530"/>
   </g>
  </g>
 </g>
</svg>